<svg xmlns="http://www.w3.org/2000/svg" height="800" width="1200" viewBox="-58.80315 -27.5915 509.6273 165.549"><defs><clipPath id="a" clipPathUnits="userSpaceOnUse"><path d="M121.45 391.828h44.64v15.48h-44.64z"/></clipPath></defs><g clip-path="url(#a)" transform="matrix(9.79639 0 0 -9.79639 -1216.284 3964.09)"><path d="M130.639 393.382h-.28v11.266h.28z" fill="#3067ba"/><path d="M127.496 404.146h-2.319a1.022 1.022 0 01-1.02-1.021v-7.855c0-.563.457-1.021 1.02-1.021h2.318c.563 0 1.021.459 1.021 1.021l.001 7.855c0 .563-.458 1.021-1.02 1.021" fill="#fff"/><path d="M127.496 394.487c.433 0 .784.348.784.784v7.854a.784.784 0 01-.783.785h-2.32a.784.784 0 01-.783-.785v-7.854c0-.433.35-.784.784-.784z" fill="#fff"/><path d="M127.35 395.625c-.082.343-.356.551-.215.664-.035.114-.105.256-.102.255-.425.245-.788.641-.849.698-.074.081-.2.163-.225.228-.102.094-.604.804-.718 1.066l-.205.03c-.09.376-.4.693-.407 1.072-.004.144.064.45.09.511a.679.679 0 00.142.163v.102c-.443-.013-.315.032-.392.204-.053.12-.016.146.004.23.058.241.257.62.34.791.024.086.11.294.11.294.33.673.453.624.844.661l.021.03c.393.015.33.046.383.423-.057-.024-.073.12-.073.12-.032.215.06.174.102.178.01.354.045.466.302.564h-1.325a.784.784 0 01-.784-.784v-7.855c0-.433.351-.784.784-.784h2.32c-.266.143-.109.417-.1.935-.126.112-.042.16-.048.204" fill="#106bb6"/><path d="M126.925 402.302c.07-.042.107-.075.178-.12.188-.12.42-.332.39-1.062.055-.159.078-.472.128-.57.098-.197.163-.324.192-.507 0 0 .029-.288.065-.309.197-.044.14-.063.168-.098.03-.038.144-.037.144-.142a.71.71 0 00.09-.163v3.794a.784.784 0 01-.783.784h-.75c.12-.043.188-.094.229-.174.096-.008.21-.225.032-.544.078-.054.017-.133-.038-.226-.018-.028-.037-.08-.088-.077-.07-.144-.152-.283-.213-.29-.018-.023-.032-.085-.005-.114a1 1 0 00.257-.149zm.689-7.806c.343.208.13.603.065.836-.004.013.006.03.012.04.017.033-.02.107-.02.107-.041.037-.052.23-.074.318-.037.147.065.4.065.486 0 .085-.065.204-.183.355-.03.033-.116.769-.192.955-.106.258-.14.217-.266.523-.098.217-.02.535-.241 1.274a.35.35 0 01.05.045s-.176.64-.233.817c-.057.175-.16.187-.16.187s0 .072.007.09c.008.029.212.563.23.58.002.012.297.213.302.183.025-.13.139-.796.188-.902.049-.106.22-.433.3-.635a.7.7 0 11.817-.938l-.001-3.546a.778.778 0 00-.66-.775z" fill="#eb1a4d"/><path d="M124.811 396.203h.265l.187-.645.008-.046h.003v.691h.234v-1.174h-.264l-.189.684-.007.042h-.002v-.726h-.235zm1.069-.464h.074c.086 0 .095.064.095.137 0 .082-.018.128-.085.128h-.084zm0-.51h.08c.09 0 .1.045.1.161 0 .08-.01.159-.094.159h-.086zm-.28.974h.384c.197 0 .293-.074.293-.276 0-.123-.018-.232-.15-.276v-.003c.133-.023.179-.122.179-.27 0-.197-.072-.348-.313-.348h-.392zm1.106-.203l-.067-.528h.135l-.062.527v.027h-.004zm-.176.203h.36l.22-1.174h-.285l-.025.258h-.189l-.028-.258h-.27z" fill="#fff"/><path d="M154.196 402.831h1.68l.795-5.724h.018l.803 5.724h1.68l-1.511-7.404h-2zm-21.349 0h1.803l1.288-4.812h.019v4.812h1.457v-7.404h-1.774l-1.373 5.102h-.019v-5.102h-1.401zm6.78-6.118h.476c.635 0 .85.445.85.964 0 .726-.336 1.038-.822 1.038h-.504zm0 3.163h.43c.542 0 .765.342.765.871 0 .383-.186.798-.756.798h-.439zm-1.569 2.955h2.438c1.14 0 1.896-.591 1.896-1.825 0-.86-.41-1.535-1.046-1.67v-.021c.494-.082 1.232-.321 1.232-1.835 0-.871-.345-2.053-2.204-2.053h-2.316zm7.22-1.348h-.02l-.55-3.297h1.139zm-.953 1.348h1.96l1.664-7.404h-1.626l-.242 1.41h-1.597l-.234-1.41h-1.625zm6.5-1.411h-1.401v1.41h4.37v-1.41h-1.4v-5.993h-1.57z" fill="#106bb6"/><path d="M162.296 395.413s-.103.303-.25.762c-.032.103.028.24.087.29l2.04 1.66s-.133.067-.353.19c-.062.035-.117.163-.095.248l.37 1.36-1.073-.24c-.092-.02-.2 0-.254.108l-.266.604s-.875-.963-1.027-1.135c-.092-.095-.355-.079-.304.175.098.501.5 2.375.5 2.375s-.728-.413-.815-.459c-.089-.044-.162-.003-.228.12-.227.437-.748 1.45-.748 1.45l-1.405-7.508z" fill="#eb1a4d"/></g></svg>